<svg width="11" height="7" viewBox="0 0 11 7" fill="none" xmlns="http://www.w3.org/2000/svg">
<path d="M10.7296 1.16107C10.7307 1.21197 10.7214 1.26258 10.7022 1.31001C10.6831 1.35744 10.6544 1.40077 10.6178 1.43752L5.76272 6.31315C5.68885 6.38731 5.58744 6.43017 5.48078 6.43231C5.37412 6.43445 5.27094 6.3957 5.19394 6.32457L0.132266 1.648C0.0941234 1.61277 0.0635573 1.57066 0.0423126 1.52405C0.0210678 1.47745 0.00956037 1.42727 0.00844735 1.37638C0.00733434 1.32549 0.0166376 1.27489 0.0358258 1.22746C0.055014 1.18004 0.0837114 1.13672 0.12028 1.09997C0.156848 1.06323 0.20057 1.03379 0.248951 1.01332C0.297332 0.992857 0.349424 0.981771 0.402252 0.980699C0.45508 0.979626 0.507611 0.988588 0.556844 1.00707C0.606076 1.02556 0.651048 1.0532 0.68919 1.08842L5.46042 5.49688L10.0369 0.900783C10.092 0.845428 10.1629 0.807056 10.2406 0.790524C10.3183 0.773991 10.3994 0.78004 10.4736 0.807906C10.5477 0.835772 10.6116 0.884204 10.6572 0.94707C10.7028 1.00994 10.728 1.08441 10.7296 1.16107Z" fill="black"/>
</svg>
