<svg width="17" height="23" viewBox="0 0 17 23" fill="none" xmlns="http://www.w3.org/2000/svg">
<path d="M15.7481 7.27161C15.7134 6.8389 15.5197 6.4355 15.2057 6.14211C14.8917 5.84872 14.4806 5.68699 14.0546 5.68926H12.2408V4.05895C12.2522 3.14525 11.9466 2.25681 11.3779 1.5504C10.8091 0.84399 10.0139 0.365011 9.1324 0.197978C8.59561 0.105184 8.04543 0.132783 7.52018 0.278854C6.99492 0.424925 6.50724 0.685955 6.09109 1.04376C5.67494 1.40156 5.34034 1.84754 5.11059 2.35061C4.88084 2.85368 4.76148 3.40176 4.76082 3.95665V5.68926H2.94705C2.52155 5.6868 2.1108 5.84808 1.7969 6.14087C1.483 6.43365 1.28907 6.83638 1.25385 7.26856L0 20.5897C0 22.3223 1.02309 22.3223 1.70017 22.3223H15.3015C15.9786 22.3223 17.0017 22.3223 17 20.5565L15.7481 7.27161ZM5.44081 3.95665C5.44134 3.50749 5.53693 3.06373 5.72106 2.65565C5.9052 2.24757 6.17354 1.88478 6.50778 1.59203C6.84203 1.29929 7.2343 1.08347 7.65784 0.959317C8.08138 0.835163 8.52622 0.805591 8.96199 0.87262C9.69657 1.00045 10.3622 1.3916 10.8387 1.97553C11.3152 2.55946 11.5713 3.29772 11.5608 4.05715V5.68926H5.44081V3.95665ZM15.3015 21.6292H1.70017C1.02109 21.6292 0.68017 21.6292 0.678402 20.6228L1.93096 7.33177C1.95179 7.07214 2.06803 6.83011 2.25642 6.65407C2.44481 6.47803 2.69147 6.38097 2.94705 6.3823H4.76082V7.42186C4.76082 7.51377 4.79664 7.6019 4.8604 7.66689C4.92416 7.73188 5.01064 7.76838 5.10082 7.76838C5.19099 7.76838 5.27747 7.73188 5.34123 7.66689C5.40499 7.6019 5.44081 7.51377 5.44081 7.42186V6.3823H11.5608V7.42186C11.5608 7.51377 11.5966 7.6019 11.6604 7.66689C11.7242 7.73188 11.8106 7.76838 11.9008 7.76838C11.991 7.76838 12.0775 7.73188 12.1412 7.66689C12.205 7.6019 12.2408 7.51377 12.2408 7.42186V6.3823H14.0546C14.3107 6.3811 14.5578 6.47861 14.7463 6.65527C14.9348 6.83193 15.0509 7.07469 15.0712 7.33489L16.3216 20.5897C16.3216 21.6292 15.9805 21.6292 15.3015 21.6292Z" fill="black"/>
</svg>
