<svg width="34" height="34" viewBox="0 0 34 34" fill="none" xmlns="http://www.w3.org/2000/svg">
<path d="M24.3738 9.59497V23.5145H14.11C14.068 22.8865 13.7794 22.2974 13.3028 21.8669C12.8262 21.4364 12.1974 21.1968 11.5441 21.1968C10.8907 21.1968 10.2619 21.4364 9.78529 21.8669C9.3087 22.2974 9.0201 22.8865 8.97812 23.5145H6.375V9.59497H24.3738Z" stroke="#3C4044" stroke-linecap="round" stroke-linejoin="round"/>
<path d="M32.9375 18.6017V23.5145H31.2269C31.1849 22.8865 30.8963 22.2974 30.4197 21.8669C29.9431 21.4364 29.3143 21.1968 28.661 21.1968C28.0076 21.1968 27.3788 21.4364 26.9022 21.8669C26.4256 22.2974 26.137 22.8865 26.095 23.5145H24.3738V13.689H27.9544L32.9375 18.6017Z" stroke="#3C4044" stroke-linecap="round" stroke-linejoin="round"/>
<path d="M32.9375 18.6017V23.5145H31.2269C31.1849 22.8865 30.8963 22.2974 30.4197 21.8669C29.9431 21.4364 29.3143 21.1968 28.661 21.1968C28.0076 21.1968 27.3788 21.4364 26.9022 21.8669C26.4256 22.2974 26.137 22.8865 26.095 23.5145H24.3738V18.6017H32.9375Z" stroke="#3C4044" stroke-linecap="round" stroke-linejoin="round"/>
<path d="M11.5388 25.9709C12.9588 25.9709 14.11 24.8711 14.11 23.5145C14.11 22.1579 12.9588 21.0581 11.5388 21.0581C10.1187 21.0581 8.96753 22.1579 8.96753 23.5145C8.96753 24.8711 10.1187 25.9709 11.5388 25.9709Z" stroke="#3C4044" stroke-linecap="round" stroke-linejoin="round"/>
<path d="M28.6557 25.9709C30.0758 25.9709 31.227 24.8711 31.227 23.5145C31.227 22.1579 30.0758 21.0581 28.6557 21.0581C27.2357 21.0581 26.0845 22.1579 26.0845 23.5145C26.0845 24.8711 27.2357 25.9709 28.6557 25.9709Z" stroke="#3C4044" stroke-linecap="round" stroke-linejoin="round"/>
<path d="M1.0625 11.2325H3.83562" stroke="#3C4044" stroke-linecap="round" stroke-linejoin="round"/>
<path d="M1.0625 14.5078H3.83562" stroke="#3C4044" stroke-linecap="round" stroke-linejoin="round"/>
<path d="M1.0625 17.7829H3.83562" stroke="#3C4044" stroke-linecap="round" stroke-linejoin="round"/>
</svg>
