<svg width="291" height="57" viewBox="0 0 291 57" fill="none" xmlns="http://www.w3.org/2000/svg">
<path d="M86.194 43.9725C85.7367 43.9725 85.3447 44.0425 85.018 44.1825C84.7007 44.3225 84.43 44.5418 84.206 44.8405C83.926 45.2045 83.7067 45.6851 83.548 46.2825C83.3893 46.8705 83.31 47.5191 83.31 48.2285C83.31 48.8911 83.38 49.5118 83.52 50.0905C83.66 50.6691 83.856 51.1545 84.108 51.5465C84.36 51.9385 84.6633 52.2278 85.018 52.4145C85.382 52.5918 85.8347 52.6805 86.376 52.6805C88.056 52.6805 89.0313 51.8918 89.302 50.3145H90.072C89.652 52.4891 88.3733 53.5765 86.236 53.5765C84.948 53.5765 83.9213 53.2031 83.156 52.4565C82.6987 52.0085 82.3487 51.4438 82.106 50.7625C81.8633 50.0811 81.742 49.3251 81.742 48.4945C81.742 47.5518 81.896 46.6978 82.204 45.9325C82.512 45.1671 82.946 44.5558 83.506 44.0985C84.2153 43.5105 85.1533 43.2165 86.32 43.2165C86.8987 43.2165 87.37 43.2911 87.734 43.4405C88.098 43.5898 88.4573 43.8558 88.812 44.2385L89.092 43.3565H89.862V46.4505H89.008C88.8773 45.6291 88.574 45.0131 88.098 44.6025C87.6313 44.1825 86.9967 43.9725 86.194 43.9725ZM103.758 52.5405L102.932 50.0485H99.1803L98.3263 52.5405L99.4883 52.8345V53.4365H96.2123V52.8345L97.3603 52.5405L100.72 43.2165H102.022L105.34 52.5405L106.46 52.8345V53.4365H102.61V52.8345L103.758 52.5405ZM101.098 44.4625L99.4603 49.2365H102.666L101.154 44.4625H101.098ZM115.458 44.2525V52.5965H119.266L119.742 50.1745H120.512V53.4365H112.742V52.8345L114.058 52.5405V44.2525L112.742 43.9585V43.3565H116.914V43.9585L115.458 44.2525ZM130.003 44.2525V52.5405L131.319 52.8345V53.4365H127.287V52.8345L128.603 52.5405V44.2525L127.287 43.9585V43.3565H131.319V43.9585L130.003 44.2525ZM142.705 43.9725C142.247 43.9725 141.855 44.0425 141.529 44.1825C141.211 44.3225 140.941 44.5418 140.717 44.8405C140.437 45.2045 140.217 45.6851 140.059 46.2825C139.9 46.8705 139.821 47.5191 139.821 48.2285C139.821 48.8911 139.891 49.5118 140.031 50.0905C140.171 50.6691 140.367 51.1545 140.619 51.5465C140.871 51.9385 141.174 52.2278 141.529 52.4145C141.893 52.5918 142.345 52.6805 142.887 52.6805C144.567 52.6805 145.542 51.8918 145.813 50.3145H146.583C146.163 52.4891 144.884 53.5765 142.747 53.5765C141.459 53.5765 140.432 53.2031 139.667 52.4565C139.209 52.0085 138.859 51.4438 138.617 50.7625C138.374 50.0811 138.253 49.3251 138.253 48.4945C138.253 47.5518 138.407 46.6978 138.715 45.9325C139.023 45.1671 139.457 44.5558 140.017 44.0985C140.726 43.5105 141.664 43.2165 142.831 43.2165C143.409 43.2165 143.881 43.2911 144.245 43.4405C144.609 43.5898 144.968 43.8558 145.323 44.2385L145.603 43.3565H146.373V46.4505H145.519C145.388 45.6291 145.085 45.0131 144.609 44.6025C144.142 44.1825 143.507 43.9725 142.705 43.9725ZM161.109 49.8105V44.2525L159.933 43.9585V43.3565H163.167V43.9585L161.991 44.2525V50.0345C161.991 51.1918 161.678 52.0738 161.053 52.6805C160.428 53.2871 159.513 53.5905 158.309 53.5905C157.068 53.5905 156.111 53.2825 155.439 52.6665C154.776 52.0411 154.445 51.1591 154.445 50.0205V44.2525L153.269 43.9585V43.3565H157.021V43.9585L155.845 44.2525V49.7825C155.845 51.8078 156.769 52.8205 158.617 52.8205C159.494 52.8205 160.129 52.5825 160.521 52.1065C160.913 51.6305 161.109 50.8651 161.109 49.8105ZM169.81 43.3565H178.154V46.2965H177.426L176.978 44.1965H174.682V52.4985L176.166 52.8345V53.4365H171.798V52.8345L173.282 52.4985V44.1965H170.972L170.538 46.2965H169.81V43.3565Z" fill="#B9975B"/>
<path d="M0.93 5.85862H18.81V12.1586H17.25L16.29 7.65862H11.37V25.4486L14.55 26.1686V27.4586H5.19V26.1686L8.37 25.4486V7.65862H3.42L2.49 12.1586H0.93V5.85862ZM42.2761 7.77862V25.5386L44.7961 26.1686V27.4586H36.7561V26.1686L39.2761 25.5386V17.2286H29.1061V25.5386L31.6261 26.1686V27.4586H23.5861V26.1686L26.1061 25.5386V7.77862L23.5861 7.14862V5.85862H31.6261V7.14862L29.1061 7.77862V15.4886H39.2761V7.77862L36.7561 7.14862V5.85862H44.7961V7.14862L42.2761 7.77862ZM62.7881 20.3186H61.2581L60.7181 17.2586H55.7381V25.6586H64.7981L65.7281 20.7686H67.4681V27.4586H49.9181V26.1686L52.7381 25.5386V7.77862L49.9181 7.14862V5.85862H66.8081V12.2186H65.2481L64.2881 7.59862H55.7381V15.4586H60.7181L61.2581 12.3986H62.7881V20.3186ZM99.6124 11.0486C99.6124 11.8086 99.4324 12.5186 99.0724 13.1786C98.7324 13.8386 98.2624 14.3886 97.6624 14.8286C97.0624 15.2686 96.3724 15.5386 95.5924 15.6386V15.7586C97.1524 16.0786 98.3824 16.7386 99.2824 17.7386C100.182 18.7386 100.632 19.9686 100.632 21.4286C100.632 22.5486 100.332 23.5886 99.7324 24.5486C99.1524 25.4886 98.4124 26.1886 97.5124 26.6486C96.9524 26.9286 96.2624 27.1386 95.4424 27.2786C94.6224 27.3986 93.4724 27.4586 91.9924 27.4586H83.0224V26.1686L85.5424 25.5386V7.77862L83.0224 7.14862V5.85862H93.1024C95.2024 5.85862 96.8224 6.36862 97.9624 7.38862C98.4824 7.86862 98.8824 8.42862 99.1624 9.06862C99.4624 9.70862 99.6124 10.3686 99.6124 11.0486ZM92.3824 17.0486H88.5424V25.6586H91.8424C92.7624 25.6586 93.5024 25.6086 94.0624 25.5086C94.6224 25.4086 95.0924 25.2486 95.4724 25.0286C96.0124 24.7086 96.4524 24.2286 96.7924 23.5886C97.1324 22.9486 97.3024 22.1786 97.3024 21.2786C97.3024 20.5186 97.1724 19.8586 96.9124 19.2986C96.6524 18.7186 96.3224 18.2586 95.9224 17.9186C95.5624 17.6186 95.1024 17.3986 94.5424 17.2586C93.9824 17.1186 93.2624 17.0486 92.3824 17.0486ZM88.5424 7.59862V15.3086H92.2924C93.6924 15.3086 94.7224 14.9586 95.3824 14.2586C95.6824 13.9386 95.9424 13.5286 96.1624 13.0286C96.3824 12.5286 96.4924 11.9686 96.4924 11.3486C96.4924 10.7286 96.3824 10.1786 96.1624 9.69862C95.9424 9.19862 95.6824 8.79862 95.3824 8.49862C94.7824 7.89862 93.7924 7.59862 92.4124 7.59862H88.5424ZM120.011 25.5386L118.241 20.1986H110.201L108.371 25.5386L110.861 26.1686V27.4586H103.841V26.1686L106.301 25.5386L113.501 5.55862H116.291L123.401 25.5386L125.801 26.1686V27.4586H117.551V26.1686L120.011 25.5386ZM114.311 8.22862L110.801 18.4586H117.671L114.431 8.22862H114.311ZM135.182 7.77862V16.4786L143.582 7.77862L140.852 7.14862V5.85862H148.742V7.14862L146.102 7.77862L139.082 14.7386L148.052 25.5986L150.572 26.1686V27.4586H142.202V26.1686L144.182 25.5686L137.072 16.7786L135.182 18.5786V25.5386L137.702 26.1686V27.4586H129.362V26.1686L132.182 25.5386V7.77862L129.362 7.14862V5.85862H137.702V7.14862L135.182 7.77862ZM166.868 20.3186H165.338L164.798 17.2586H159.818V25.6586H168.878L169.808 20.7686H171.548V27.4586H153.998V26.1686L156.818 25.5386V7.77862L153.998 7.14862V5.85862H170.888V12.2186H169.328L168.368 7.59862H159.818V15.4586H164.798L165.338 12.3986H166.868V20.3186ZM191.935 15.9986C191.575 16.2786 191.155 16.5186 190.675 16.7186C190.195 16.9186 189.605 17.0886 188.905 17.2286C189.085 17.4086 189.275 17.6386 189.475 17.9186C189.695 18.1986 189.905 18.5086 190.105 18.8486L194.095 25.5986L196.765 26.1686V27.4586H190.585V26.1686L186.265 17.7686H182.605V25.5386L185.455 26.1686V27.4586H177.085V26.1686L179.605 25.5386V7.77862L177.085 7.14862V5.85862H187.405C188.365 5.85862 189.205 5.94862 189.925 6.12862C190.645 6.30862 191.295 6.59862 191.875 6.99862C192.615 7.47862 193.185 8.13862 193.585 8.97862C194.005 9.81862 194.215 10.6586 194.215 11.4986C194.215 12.3386 194.005 13.1686 193.585 13.9886C193.185 14.7886 192.635 15.4586 191.935 15.9986ZM182.605 16.0286H186.895C187.995 16.0286 188.905 15.7186 189.625 15.0986C190.025 14.7386 190.335 14.2586 190.555 13.6586C190.795 13.0386 190.915 12.3786 190.915 11.6786C190.915 10.9786 190.795 10.3486 190.555 9.78862C190.335 9.20862 190.015 8.73862 189.595 8.37862C189.255 8.09862 188.855 7.89862 188.395 7.77862C187.955 7.65862 187.415 7.59862 186.775 7.59862H182.605V16.0286ZM229.984 17.1386L227.704 17.7086C227.704 18.9286 227.524 20.1586 227.164 21.3986C226.804 22.6386 226.304 23.7286 225.664 24.6686C225.864 25.0886 226.204 25.4386 226.684 25.7186C227.164 25.9986 227.674 26.1386 228.214 26.1386C228.694 26.1386 229.174 26.0186 229.654 25.7786C230.154 25.5186 230.554 25.1986 230.854 24.8186L231.634 25.9286C230.774 27.1486 229.524 27.7586 227.884 27.7586C227.184 27.7586 226.504 27.6386 225.844 27.3986C225.184 27.1386 224.564 26.7586 223.984 26.2586C223.244 26.7586 222.444 27.1386 221.584 27.3986C220.724 27.6386 219.734 27.7586 218.614 27.7586C216.194 27.7586 214.284 27.2286 212.884 26.1686C211.504 25.1086 210.814 23.6586 210.814 21.8186C210.814 20.5786 211.164 19.5086 211.864 18.6086C212.564 17.7086 213.744 16.7986 215.404 15.8786C214.304 14.1186 213.754 12.4486 213.754 10.8686C213.754 9.82862 213.974 8.91862 214.414 8.13862C214.854 7.33862 215.464 6.71862 216.244 6.27862C217.044 5.83862 217.954 5.61862 218.974 5.61862C219.914 5.61862 220.754 5.79862 221.494 6.15862C222.234 6.51862 222.814 7.01862 223.234 7.65862C223.654 8.29862 223.864 9.02862 223.864 9.84862C223.864 10.9686 223.434 12.0486 222.574 13.0886C221.734 14.1086 220.474 15.0586 218.794 15.9386L224.404 23.2286C224.924 22.4686 225.324 21.6186 225.604 20.6786C225.884 19.7386 226.024 18.7486 226.024 17.7086L223.714 17.1386V15.9086H229.984V17.1386ZM218.974 26.0186C219.734 26.0186 220.404 25.9386 220.984 25.7786C221.564 25.6186 222.114 25.3586 222.634 24.9986L216.514 17.1686C215.674 17.6086 215.014 18.2386 214.534 19.0586C214.054 19.8786 213.814 20.7886 213.814 21.7886C213.814 23.1286 214.264 24.1686 215.164 24.9086C216.064 25.6486 217.334 26.0186 218.974 26.0186ZM216.304 10.1786C216.304 10.8786 216.424 11.5886 216.664 12.3086C216.904 13.0086 217.274 13.7586 217.774 14.5586C219.194 13.7786 220.214 13.0286 220.834 12.3086C221.474 11.5886 221.794 10.8186 221.794 9.99862C221.794 9.17862 221.524 8.50862 220.984 7.98862C220.444 7.46862 219.734 7.20862 218.854 7.20862C218.034 7.20862 217.404 7.45862 216.964 7.95862C216.524 8.45862 216.304 9.19862 216.304 10.1786ZM255.379 7.17862C254.399 7.17862 253.559 7.32862 252.859 7.62862C252.179 7.92862 251.599 8.39862 251.119 9.03862C250.519 9.81862 250.049 10.8486 249.709 12.1286C249.369 13.3886 249.199 14.7786 249.199 16.2986C249.199 17.7186 249.349 19.0486 249.649 20.2886C249.949 21.5286 250.369 22.5686 250.909 23.4086C251.449 24.2486 252.099 24.8686 252.859 25.2686C253.639 25.6486 254.609 25.8386 255.769 25.8386C259.369 25.8386 261.459 24.1486 262.039 20.7686H263.689C262.789 25.4286 260.049 27.7586 255.469 27.7586C252.709 27.7586 250.509 26.9586 248.869 25.3586C247.889 24.3986 247.139 23.1886 246.619 21.7286C246.099 20.2686 245.839 18.6486 245.839 16.8686C245.839 14.8486 246.169 13.0186 246.829 11.3786C247.489 9.73862 248.419 8.42862 249.619 7.44862C251.139 6.18862 253.149 5.55862 255.649 5.55862C256.889 5.55862 257.899 5.71862 258.679 6.03862C259.459 6.35862 260.229 6.92862 260.989 7.74862L261.589 5.85862H263.239V12.4886H261.409C261.129 10.7286 260.479 9.40862 259.459 8.52862C258.459 7.62862 257.099 7.17862 255.379 7.17862ZM288.487 16.4186C288.487 18.1586 288.217 19.7986 287.677 21.3386C287.157 22.8586 286.427 24.1286 285.487 25.1486C284.667 26.0286 283.677 26.6886 282.517 27.1286C281.377 27.5486 280.057 27.7586 278.557 27.7586C277.037 27.7586 275.697 27.5486 274.537 27.1286C273.377 26.7086 272.407 26.0786 271.627 25.2386C270.707 24.2786 269.997 23.0786 269.497 21.6386C268.997 20.1786 268.747 18.5986 268.747 16.8986C268.747 15.1586 269.007 13.5286 269.527 12.0086C270.067 10.4686 270.807 9.18862 271.747 8.16862C272.587 7.26862 273.557 6.60862 274.657 6.18862C275.777 5.76862 277.097 5.55862 278.617 5.55862C280.137 5.55862 281.467 5.76862 282.607 6.18862C283.767 6.58862 284.757 7.21862 285.577 8.07862C286.517 9.03862 287.237 10.2486 287.737 11.7086C288.237 13.1686 288.487 14.7386 288.487 16.4186ZM272.197 16.2986C272.197 17.9586 272.337 19.4386 272.617 20.7386C272.897 22.0186 273.297 23.0686 273.817 23.8886C274.337 24.6286 274.987 25.1886 275.767 25.5686C276.567 25.9286 277.547 26.1086 278.707 26.1086C280.827 26.1086 282.387 25.4486 283.387 24.1286C283.927 23.3886 284.337 22.4086 284.617 21.1886C284.897 19.9486 285.037 18.4986 285.037 16.8386C285.037 15.1786 284.897 13.7186 284.617 12.4586C284.337 11.1986 283.927 10.1786 283.387 9.39862C282.867 8.63862 282.197 8.07862 281.377 7.71862C280.577 7.35862 279.627 7.17862 278.527 7.17862C277.467 7.17862 276.547 7.34862 275.767 7.68862C275.007 8.00862 274.367 8.49862 273.847 9.15862C272.747 10.6186 272.197 12.9986 272.197 16.2986Z" fill="#B9975B"/>
</svg>
