<svg width="21" height="21" viewBox="0 0 21 21" fill="none" xmlns="http://www.w3.org/2000/svg">
<mask id="path-1-inside-1_1_1209" fill="white">
<path d="M20.9998 5.00868C21 4.95111 20.9825 4.89477 20.9494 4.84679L18.0587 0.321837C18.0204 0.262704 17.9672 0.213876 17.904 0.179906C17.8408 0.145935 17.7697 0.127928 17.6974 0.127563H3.29428C3.22192 0.127928 3.15084 0.145935 3.08766 0.179906C3.02447 0.213876 2.97125 0.262704 2.93294 0.321837L0.0506437 4.80632C0.0177881 4.85135 0.000178895 4.90507 0.00022447 4.96012V6.84619C-0.00430393 7.10357 0.0597511 7.35778 0.186271 7.58453C0.312791 7.81127 0.49755 8.00298 0.7229 8.14134V19.9596C0.7229 20.067 0.767167 20.1699 0.845962 20.2458C0.924757 20.3217 1.03163 20.3644 1.14306 20.3644H19.857C19.9684 20.3644 20.0753 20.3217 20.1541 20.2458C20.2329 20.1699 20.2772 20.067 20.2772 19.9596V8.18991C20.5018 8.05284 20.6863 7.86254 20.8128 7.6372C20.9393 7.41186 21.0037 7.15901 20.9998 6.90285V5.01678V5.00868ZM3.52957 0.937036H17.4621L19.8234 4.57966H1.16827L3.52957 0.937036ZM17.2772 5.38914V6.87047C17.2937 7.03767 17.2413 7.20441 17.1312 7.33466C17.0211 7.46492 16.8623 7.54824 16.689 7.56662H15.8487C15.5041 7.56662 15.3697 7.46948 15.3109 7.38853C15.2686 7.21903 15.2517 7.04459 15.2604 6.87047V5.38914H17.2772ZM14.3949 5.38914V6.87047C14.4114 7.03767 14.359 7.20441 14.2489 7.33466C14.1388 7.46492 13.98 7.54824 13.8067 7.56662H12.9664C12.5126 7.56662 12.4622 7.38853 12.4118 7.21855V7.16188C12.4118 7.07284 12.4118 6.96761 12.4118 6.87047V5.38914H14.3949ZM11.5126 5.38914V6.87047C11.5291 7.03767 11.4767 7.20441 11.3666 7.33466C11.2565 7.46492 11.0977 7.54824 10.9244 7.56662H10.0841C9.91077 7.54824 9.75192 7.46492 9.64186 7.33466C9.5318 7.20441 9.47935 7.03767 9.49585 6.87047V5.38914H11.5126ZM8.63872 5.38914V6.87047C8.65304 7.03724 8.59978 7.20287 8.49013 7.33264C8.38047 7.46242 8.22292 7.54627 8.05049 7.56662H7.21017C7.03687 7.54824 6.87803 7.46492 6.76796 7.33466C6.6579 7.20441 6.60545 7.03767 6.62195 6.87047V5.38914H8.63872ZM5.75642 6.03672V6.84619C5.75751 6.95583 5.73319 7.06432 5.68521 7.16375C5.63724 7.26318 5.56683 7.35104 5.47911 7.42091C5.385 7.48111 5.27925 7.5224 5.1682 7.54233H4.32787C4.15457 7.52395 3.99573 7.44064 3.88567 7.31038C3.7756 7.18012 3.72315 7.01339 3.73965 6.84619V5.38914H5.78163L5.75642 6.03672ZM1.36995 7.58281C1.20986 7.55173 1.067 7.46558 0.968029 7.34045C0.86906 7.21533 0.820758 7.05978 0.832142 6.90285V5.38914H2.87412V6.87047C2.87679 6.97837 2.85397 7.08545 2.80739 7.18361C2.7608 7.28177 2.69167 7.36845 2.60522 7.4371C2.36753 7.53799 2.10816 7.58241 1.84893 7.56662H1.46238L1.36995 7.58281ZM8.57149 19.5549H4.43712V12.1482H8.63872L8.57149 19.5549ZM19.4368 19.5549H9.41181L9.47904 11.7435C9.47539 11.6348 9.43055 11.5311 9.35299 11.4521C9.27406 11.3788 9.16851 11.3381 9.05888 11.3388H4.01696C3.90552 11.3388 3.79865 11.3814 3.71986 11.4573C3.64106 11.5332 3.5968 11.6362 3.5968 11.7435V19.5549H1.55482V8.40847H2.2859C2.59538 8.39958 2.8922 8.28807 3.12622 8.09278C3.15887 8.07683 3.18983 8.05785 3.21865 8.03611C3.35793 8.16656 3.52426 8.26716 3.70673 8.33133C3.8892 8.3955 4.0837 8.42179 4.27746 8.40847H5.11778C5.42704 8.40596 5.72515 8.29684 5.9581 8.10087C6.0003 8.08139 6.03982 8.05692 6.07574 8.02802C6.36406 8.27708 6.7389 8.41284 7.12614 8.40847H7.96646C8.08041 8.40876 8.19374 8.39238 8.30259 8.3599C8.54514 8.32726 8.77584 8.23837 8.97485 8.10087C9.16989 8.23981 9.39826 8.32892 9.6387 8.3599C9.75026 8.39307 9.86648 8.40946 9.98323 8.40847H10.8236C10.9372 8.40478 11.0499 8.38848 11.1597 8.3599C11.3875 8.32944 11.6024 8.23991 11.7815 8.10087C12.0797 8.3258 12.4542 8.43548 12.8319 8.40847H13.6722C14.0266 8.42517 14.3762 8.32525 14.6638 8.12515C14.8617 8.27009 15.0972 8.35972 15.3445 8.38419C15.4591 8.39313 15.5744 8.39313 15.689 8.38419H16.7142H16.9915C17.2586 8.36169 17.5156 8.27545 17.7394 8.13325C17.8679 8.20595 18.0065 8.26047 18.1511 8.29514C18.3239 8.37606 18.5137 8.41761 18.7058 8.41656H19.4368V19.5549ZM20.1595 6.90285C20.1706 7.06093 20.1211 7.21744 20.0204 7.34274C19.9198 7.46805 19.7749 7.55346 19.6133 7.58281C19.5713 7.58281 19.5293 7.58281 19.5713 7.58281H19.1175C18.8972 7.58487 18.6774 7.56315 18.4621 7.51805C18.3527 7.45067 18.2634 7.35702 18.203 7.24631C18.1426 7.13561 18.1131 7.01166 18.1175 6.88666V5.38914H20.1595V6.90285Z"/>
</mask>
<path d="M20.9998 5.00868C21 4.95111 20.9825 4.89477 20.9494 4.84679L18.0587 0.321837C18.0204 0.262704 17.9672 0.213876 17.904 0.179906C17.8408 0.145935 17.7697 0.127928 17.6974 0.127563H3.29428C3.22192 0.127928 3.15084 0.145935 3.08766 0.179906C3.02447 0.213876 2.97125 0.262704 2.93294 0.321837L0.0506437 4.80632C0.0177881 4.85135 0.000178895 4.90507 0.00022447 4.96012V6.84619C-0.00430393 7.10357 0.0597511 7.35778 0.186271 7.58453C0.312791 7.81127 0.49755 8.00298 0.7229 8.14134V19.9596C0.7229 20.067 0.767167 20.1699 0.845962 20.2458C0.924757 20.3217 1.03163 20.3644 1.14306 20.3644H19.857C19.9684 20.3644 20.0753 20.3217 20.1541 20.2458C20.2329 20.1699 20.2772 20.067 20.2772 19.9596V8.18991C20.5018 8.05284 20.6863 7.86254 20.8128 7.6372C20.9393 7.41186 21.0037 7.15901 20.9998 6.90285V5.01678V5.00868ZM3.52957 0.937036H17.4621L19.8234 4.57966H1.16827L3.52957 0.937036ZM17.2772 5.38914V6.87047C17.2937 7.03767 17.2413 7.20441 17.1312 7.33466C17.0211 7.46492 16.8623 7.54824 16.689 7.56662H15.8487C15.5041 7.56662 15.3697 7.46948 15.3109 7.38853C15.2686 7.21903 15.2517 7.04459 15.2604 6.87047V5.38914H17.2772ZM14.3949 5.38914V6.87047C14.4114 7.03767 14.359 7.20441 14.2489 7.33466C14.1388 7.46492 13.98 7.54824 13.8067 7.56662H12.9664C12.5126 7.56662 12.4622 7.38853 12.4118 7.21855V7.16188C12.4118 7.07284 12.4118 6.96761 12.4118 6.87047V5.38914H14.3949ZM11.5126 5.38914V6.87047C11.5291 7.03767 11.4767 7.20441 11.3666 7.33466C11.2565 7.46492 11.0977 7.54824 10.9244 7.56662H10.0841C9.91077 7.54824 9.75192 7.46492 9.64186 7.33466C9.5318 7.20441 9.47935 7.03767 9.49585 6.87047V5.38914H11.5126ZM8.63872 5.38914V6.87047C8.65304 7.03724 8.59978 7.20287 8.49013 7.33264C8.38047 7.46242 8.22292 7.54627 8.05049 7.56662H7.21017C7.03687 7.54824 6.87803 7.46492 6.76796 7.33466C6.6579 7.20441 6.60545 7.03767 6.62195 6.87047V5.38914H8.63872ZM5.75642 6.03672V6.84619C5.75751 6.95583 5.73319 7.06432 5.68521 7.16375C5.63724 7.26318 5.56683 7.35104 5.47911 7.42091C5.385 7.48111 5.27925 7.5224 5.1682 7.54233H4.32787C4.15457 7.52395 3.99573 7.44064 3.88567 7.31038C3.7756 7.18012 3.72315 7.01339 3.73965 6.84619V5.38914H5.78163L5.75642 6.03672ZM1.36995 7.58281C1.20986 7.55173 1.067 7.46558 0.968029 7.34045C0.86906 7.21533 0.820758 7.05978 0.832142 6.90285V5.38914H2.87412V6.87047C2.87679 6.97837 2.85397 7.08545 2.80739 7.18361C2.7608 7.28177 2.69167 7.36845 2.60522 7.4371C2.36753 7.53799 2.10816 7.58241 1.84893 7.56662H1.46238L1.36995 7.58281ZM8.57149 19.5549H4.43712V12.1482H8.63872L8.57149 19.5549ZM19.4368 19.5549H9.41181L9.47904 11.7435C9.47539 11.6348 9.43055 11.5311 9.35299 11.4521C9.27406 11.3788 9.16851 11.3381 9.05888 11.3388H4.01696C3.90552 11.3388 3.79865 11.3814 3.71986 11.4573C3.64106 11.5332 3.5968 11.6362 3.5968 11.7435V19.5549H1.55482V8.40847H2.2859C2.59538 8.39958 2.8922 8.28807 3.12622 8.09278C3.15887 8.07683 3.18983 8.05785 3.21865 8.03611C3.35793 8.16656 3.52426 8.26716 3.70673 8.33133C3.8892 8.3955 4.0837 8.42179 4.27746 8.40847H5.11778C5.42704 8.40596 5.72515 8.29684 5.9581 8.10087C6.0003 8.08139 6.03982 8.05692 6.07574 8.02802C6.36406 8.27708 6.7389 8.41284 7.12614 8.40847H7.96646C8.08041 8.40876 8.19374 8.39238 8.30259 8.3599C8.54514 8.32726 8.77584 8.23837 8.97485 8.10087C9.16989 8.23981 9.39826 8.32892 9.6387 8.3599C9.75026 8.39307 9.86648 8.40946 9.98323 8.40847H10.8236C10.9372 8.40478 11.0499 8.38848 11.1597 8.3599C11.3875 8.32944 11.6024 8.23991 11.7815 8.10087C12.0797 8.3258 12.4542 8.43548 12.8319 8.40847H13.6722C14.0266 8.42517 14.3762 8.32525 14.6638 8.12515C14.8617 8.27009 15.0972 8.35972 15.3445 8.38419C15.4591 8.39313 15.5744 8.39313 15.689 8.38419H16.7142H16.9915C17.2586 8.36169 17.5156 8.27545 17.7394 8.13325C17.8679 8.20595 18.0065 8.26047 18.1511 8.29514C18.3239 8.37606 18.5137 8.41761 18.7058 8.41656H19.4368V19.5549ZM20.1595 6.90285C20.1706 7.06093 20.1211 7.21744 20.0204 7.34274C19.9198 7.46805 19.7749 7.55346 19.6133 7.58281C19.5713 7.58281 19.5293 7.58281 19.5713 7.58281H19.1175C18.8972 7.58487 18.6774 7.56315 18.4621 7.51805C18.3527 7.45067 18.2634 7.35702 18.203 7.24631C18.1426 7.13561 18.1131 7.01166 18.1175 6.88666V5.38914H20.1595V6.90285Z" fill="black" stroke="black" stroke-width="2" mask="url(#path-1-inside-1_1_1209)"/>
</svg>
